<svg width="24" height="24" viewBox="0 0 24 24" fill="none" xmlns="http://www.w3.org/2000/svg">
<g id="Search?">
<g id="Group">
<g id="_x32_-Magnifying_Glass">
<path id="Vector" d="M19.8636 18.4699L16.6656 15.2719C17.6348 14.0031 18.1664 12.4641 18.1666 10.8401C18.1666 8.88304 17.4044 7.04299 16.0203 5.65916C14.6365 4.27534 12.7966 3.51312 10.8394 3.51312C8.8823 3.51312 7.04225 4.27534 5.65842 5.65916C2.80169 8.51614 2.80169 13.1645 5.65842 16.021C7.04225 17.4051 8.8823 18.1673 10.8394 18.1673C12.4633 18.1671 14.0023 17.6355 15.2711 16.6663L18.4692 19.8644C18.6615 20.0569 18.9141 20.1532 19.1664 20.1532C19.4187 20.1532 19.6713 20.0569 19.8636 19.8644C20.2488 19.4794 20.2488 18.8549 19.8636 18.4699ZM7.05284 14.6266C4.96506 12.5388 4.9653 9.14161 7.05284 7.05359C8.06423 6.04244 9.40906 5.48534 10.8394 5.48534C12.2699 5.48534 13.6145 6.04244 14.6259 7.05359C15.6373 8.06497 16.1943 9.4098 16.1943 10.8401C16.1943 12.2706 15.6373 13.6152 14.6259 14.6266C13.6145 15.638 12.2699 16.1951 10.8394 16.1951C9.40906 16.1951 8.06423 15.638 7.05284 14.6266Z" fill="white"/>
</g>
</g>
</g>
</svg>
